<svg xmlns="http://www.w3.org/2000/svg" viewBox="0 0 96 96" fill="none">
  <defs>
    <linearGradient id="bg" x1="16" x2="80" y1="10" y2="88" gradientUnits="userSpaceOnUse">
      <stop stop-color="#FFF8F4" />
      <stop offset="1" stop-color="#F4E8FF" />
    </linearGradient>
    <linearGradient id="heart" x1="30" x2="64" y1="24" y2="67" gradientUnits="userSpaceOnUse">
      <stop stop-color="#FF9FC0" />
      <stop offset="1" stop-color="#D89EFF" />
    </linearGradient>
  </defs>
  <rect width="96" height="96" rx="28" fill="url(#bg)" />
  <rect x="13" y="13" width="70" height="70" rx="22" stroke="#FFFFFF" stroke-opacity=".85" stroke-width="2" />
  <path
    d="M48 67.4 29.1 49.2c-4.7-4.5-4.9-11.8-.5-16.5 4.4-4.7 11.7-5 16.5-.6L48 34.8l2.9-2.7c4.8-4.4 12.1-4.1 16.5.6 4.4 4.7 4.2 12-.5 16.5L48 67.4Z"
    fill="url(#heart)"
  />
  <path
    d="M69 21.5a1.5 1.5 0 0 1 1.5 1.5v4.5H75a1.5 1.5 0 1 1 0 3h-4.5V35a1.5 1.5 0 1 1-3 0v-4.5H63a1.5 1.5 0 1 1 0-3h4.5V23a1.5 1.5 0 0 1 1.5-1.5Z"
    fill="#FF86AF"
  />
</svg>
